<svg id="Layer_1" data-name="Layer 1" xmlns="http://www.w3.org/2000/svg" viewBox="0 0 1270.57 927.1"><defs><style>.cls-1{fill:#fff;}.cls-2{fill:#cd1a4f;}.cls-3{fill:#33b4c1;}</style></defs><path class="cls-1" d="M66.61,821.16H84.25L58.7,925.43H25.55L0,821.16H17.64l20.68,89.35h7.61Z"/><path class="cls-1" d="M146.9,911.73l4.26-.46.31,12.33a157.66,157.66,0,0,1-30.72,3.5q-16.89,0-24.26-9.28t-7.37-29.68q0-40.5,33-40.49,31.94,0,31.93,34.85L153,894.38H105.84q.15,9.43,4.11,13.85t14.75,4.41Q135.5,912.64,146.9,911.73Zm-9.12-30.14q0-11.26-3.57-15.75t-12.09-4.49q-8.52,0-12.4,4.72t-4,15.52Z"/><path class="cls-1" d="M198.46,847.65a101.51,101.51,0,0,1,19,2.13l3.8.76-.61,13.09q-12-1.21-17.79-1.22-11.56,0-15.51,5.18t-4,19.48q0,14.31,3.8,19.79T203,912.34l17.79-1.22.46,13.24q-15.36,2.75-23.12,2.74-17.34,0-24.41-9.36t-7.07-30.67q0-21.32,7.46-30.37T198.46,847.65Z"/><path class="cls-1" d="M278.14,863.48h-21V897q0,9.28,1.36,12.33t7,3.05l12.47-.46.76,13.24a88.43,88.43,0,0,1-15.51,2q-12.93,0-17.72-5.94t-4.79-22.37V863.48H231V849.32h9.73V827.25h16.43v22.07h21Z"/><path class="cls-1" d="M295.86,857.54q7.83-9.88,26.08-9.89T348,857.54q7.83,9.9,7.83,29.68t-7.6,29.83q-7.61,10.05-26.31,10.05t-26.31-10.05Q288,907,288,887.22T295.86,857.54ZM308.25,907q3.5,6.09,13.69,6.09T335.63,907q3.5-6.09,3.49-19.94t-3.72-19.63q-3.73-5.79-13.46-5.79t-13.46,5.79q-3.74,5.77-3.73,19.63T308.25,907Z"/><path class="cls-1" d="M372.27,925.43V849.32H388.7v9.13a72.27,72.27,0,0,1,25.85-10.8v16.59a106.76,106.76,0,0,0-22.35,6.7l-3.35,1.37v53.12Z"/><path class="cls-1" d="M505,885.55V870.63h29.66v53q-4.11,1.06-16.65,2.28t-18.18,1.22q-23.72,0-32.69-13.09t-9-41q0-27.93,9.2-40.72t31.86-12.78a170.87,170.87,0,0,1,30.12,3l5.32,1.07L534.08,837a254.73,254.73,0,0,0-33-2.43q-14.59,0-20,8.22t-5.4,30.44q0,22.23,5.1,30.67t20.6,8.45q11.1,0,16.58-1.37V885.55Z"/><path class="cls-1" d="M610.12,872.76v34.71a7.18,7.18,0,0,0,1.75,4.94,8.41,8.41,0,0,0,4.94,2.06l-.46,12.63q-13.08,0-20.22-5.63a57.94,57.94,0,0,1-24.49,5.63Q549,927.1,549,902.9q0-11.56,6.16-16.74t18.93-6.24l19.62-1.68v-5.48c0-4-.89-6.9-2.66-8.52s-4.39-2.44-7.83-2.44q-9.74,0-24.33,1.22l-4.87.31-.61-11.72a132,132,0,0,1,30.49-4q13.92,0,20.08,6T610.12,872.76Zm-34.07,18.88q-10.49.92-10.49,11.41t9.27,10.5A58.89,58.89,0,0,0,591,911.12l2.73-.91V890Z"/><path class="cls-1" d="M647.52,925.43H631V849.32h16.42V854q10.8-6.39,19.77-6.39,13.23,0,19.32,7.46,13.83-7.46,27.52-7.46t19.31,8.45q5.63,8.45,5.63,28.53v40.8H722.5V885.09q0-12.33-2.51-17.5t-10.42-5.18a41.23,41.23,0,0,0-14.75,3.05l-2.59,1.06q1.21,3,1.22,19.48v39.43H677V886.31q0-13.54-2.44-18.72T664,862.41a33,33,0,0,0-14.14,3.05l-2.29.91Z"/><path class="cls-1" d="M812.53,911.73l4.25-.46.31,12.33a157.66,157.66,0,0,1-30.72,3.5q-16.87,0-24.26-9.28t-7.37-29.68q0-40.5,33-40.49,31.93,0,31.93,34.85l-1.06,11.88H771.47q.15,9.43,4.1,13.85t14.75,4.41Q801.12,912.64,812.53,911.73Zm-9.13-30.14q0-11.26-3.57-15.75c-2.39-3-6.41-4.49-12.09-4.49s-9.81,1.57-12.4,4.72-3.93,8.32-4,15.52Z"/><path class="cls-1" d="M901.64,834.25q-19.32,0-19.31,13.55,0,7,4.56,10T907,865.08q15.59,4.33,22,10.35t6.39,19q0,16.43-9.35,24.58t-25.47,8.14a151.81,151.81,0,0,1-28.6-3L866.51,923l1.67-13.55q20.54,2.74,31.33,2.74,18.86,0,18.86-16.74,0-6.54-4.26-9.66T895,878.93q-14.91-3.73-22.2-10.28t-7.3-20.7q0-14.15,9.2-21.38t25.47-7.23a166.61,166.61,0,0,1,27.68,2.74l5.32.91-1.37,13.7Q910.45,834.26,901.64,834.25Z"/><path class="cls-1" d="M991.52,863.48h-21V897q0,9.28,1.37,12.33t7,3.05l12.47-.46.76,13.24a88.63,88.63,0,0,1-15.52,2q-12.92,0-17.71-5.94t-4.79-22.37V863.48h-9.74V849.32h9.74V827.25h16.42v22.07h21Z"/><path class="cls-1" d="M1051.13,849.32h16.42v76.11h-16.42v-4.72q-11.1,6.39-20.53,6.39-15.66,0-21-8.45t-5.32-29.6V849.32h16.58V889.2q0,13.69,2.28,18.42t10.64,4.72a36.62,36.62,0,0,0,15.06-3.05l2.28-.91Z"/><path class="cls-1" d="M1149.67,817.66V925.43h-16.42v-4q-11.1,5.63-20.38,5.63-14.91,0-21.82-9T1084.13,888q0-21.15,7.68-30.74t24-9.59a118.42,118.42,0,0,1,17.34,2v-32Zm-19.16,91.94,2.59-1.07v-45a102.55,102.55,0,0,0-16.88-1.52q-15.36,0-15.36,25.57,0,14,3.57,19.4t11.33,5.41A40.2,40.2,0,0,0,1130.51,909.6Z"/><path class="cls-1" d="M1169.75,836.38v-17.5h16.57v17.5Zm0,89V849.32h16.57v76.11Z"/><path class="cls-1" d="M1210.58,857.54q7.83-9.88,26.08-9.89t26.08,9.89q7.83,9.9,7.83,29.68t-7.6,29.83q-7.6,10.05-26.31,10.05t-26.31-10.05q-7.61-10-7.6-29.83T1210.58,857.54ZM1223,907q3.49,6.09,13.69,6.09t13.69-6.09q3.5-6.09,3.49-19.94t-3.72-19.63q-3.73-5.79-13.46-5.79t-13.46,5.79q-3.72,5.77-3.73,19.63T1223,907Z"/><polyline class="cls-1" points="922.1 62.68 870.22 105.33 818.34 147.99 766.46 190.27 714.58 232.92 662.33 275.57 662.33 360.13 662.33 445.07 661.96 529.63 713.84 486.98 766.09 444.7 817.97 402.04 869.85 359.39 869.85 443.95 817.6 486.61 765.72 529.26 713.84 571.91 661.96 614.56 661.59 699.13 713.47 656.47 765.72 613.82 817.6 571.54 869.48 528.89 921.36 486.24 921.73 401.67 921.73 316.74 922.1 232.18 869.85 274.83 817.97 317.11 766.09 359.76 714.21 402.42 714.21 317.85 766.46 275.2 818.34 232.55 870.22 189.9 922.1 147.24 922.1 62.68"/><polygon class="cls-2" points="922.1 0 637.51 233.66 351.06 0 465.19 0 637.14 140.2 807.97 0 922.1 0"/><polyline class="cls-3" points="613.05 275.57 560.8 232.92 508.55 190.27 456.3 147.99 404.05 105.33 351.8 62.68 351.43 147.61 351.43 232.18 351.06 316.74 351.06 401.67 351.06 486.24 403.31 528.89 455.56 571.54 507.81 613.82 560.06 656.47 612.31 699.13 612.68 614.56 612.68 529.63 613.05 445.07 560.43 402.42 508.18 359.76 455.93 317.11 455.93 402.04 508.18 444.7 560.43 486.98 560.43 571.91 507.81 529.26 455.56 486.61 403.31 443.95 403.68 359.39 403.68 274.83 404.05 189.9 456.3 232.55 508.55 275.2 560.8 317.85 613.05 360.13 613.05 275.57"/></svg>