<svg xmlns="http://www.w3.org/2000/svg" width="514" height="362" viewBox="0 0 514 362"><path id="Mail" class="cls-1" d="M29,4c3.279-.311,9.544-1.273,12-3H437c17.608,0,36.737-.932,49,4-0.333.333-199,200-212,213-4.6,4.593-9.93,13.372-22,10-8.113-2.267-13.608-11.608-19-17C219.335,197.335,28.667,4.333,29,4ZM159,182L5,27c-5.268,22.7-4,56.326-4,85V255c0,18.89-4.018,67.657,4,78C5,333.667,159,182,159,182ZM509,27c0.76,4.886,4,4.9,4,14V260c0,17.245,3.393,69.459-6,75-37.33-37.663-152-155-152-155S508.333,27,509,27ZM180,203c6.121,2.239,9.74,8.74,14,13,17.894,17.894,44.695,55.326,83,39,13.118-5.591,33.465-29.466,44-40,4.006-4.006,7.207-9.887,13-12l90,90c14.833,14.833,29.167,30.167,44,45l18,18-1,1c-6.289,4.863-19.015,4-30,4H61c-11.508,0-25.4,1.118-32-4l-1-1,18-18c14.833-14.833,29.167-30.167,44-45Z"/></svg>
